<?xml version="1.0" encoding="UTF-8" standalone="no" ?>
<!DOCTYPE svg PUBLIC "-//W3C//DTD SVG 1.1//EN" "http://www.w3.org/Graphics/SVG/1.1/DTD/svg11.dtd">
<svg xmlns="http://www.w3.org/2000/svg" xmlns:xlink="http://www.w3.org/1999/xlink" version="1.1" width="1080" height="1080" viewBox="0 0 1080 1080" xml:space="preserve">
<g transform="matrix(1 0 0 1 540 540)" id="43e7d7f5-1cc3-45d1-92fd-ecaf885a11fe"  >
<rect style="stroke: none; stroke-width: 1; stroke-dasharray: none; stroke-linecap: butt; stroke-dashoffset: 0; stroke-linejoin: miter; stroke-miterlimit: 4; fill: rgb(255,255,255); fill-rule: nonzero; opacity: 1; visibility: hidden;" vector-effect="non-scaling-stroke"  x="-540" y="-540" rx="0" ry="0" width="1080" height="1080" />
</g>
<g transform="matrix(1 0 0 1 540 540)" id="e012890a-9d2c-4401-bc6c-654a21df93dd"  >
</g>
<g transform="matrix(45.45 0 0 45.45 538.07 538.8)"  >
<path style="stroke: rgb(0,0,0); stroke-width: 0; stroke-dasharray: none; stroke-linecap: butt; stroke-dashoffset: 0; stroke-linejoin: miter; stroke-miterlimit: 4; fill: rgb(248,153,28); fill-rule: nonzero; opacity: 1;" vector-effect="non-scaling-stroke"  transform=" translate(-12.98, -7.97)" d="M 12.987234 13.7361702 L 25.8723404 5.70212766 L 25.8723404 7.88085106 L 12.987233999999999 15.948936200000002 L 0.08510637999999915 7.880851060000001 L 0.08510637999999915 5.702127660000001 z M 12.987234 3.659574470000001 C 15.880851100000001 3.659574470000001 18.4510638 5.174468090000001 19.948936200000002 7.37021277 L 18.059574500000004 8.5787234 C 15.217021300000004 4.782978719999999 9.991489360000003 4.10212766 6.365957450000003 7.114893619999999 C 6.246808510000004 7.199999999999999 6.1787234000000035 7.2680851099999995 6.059574470000003 7.387234039999999 C 7.523404260000003 5.123404259999999 10.076595700000002 3.659574469999999 12.987234000000003 3.659574469999999 z M 12.987234 7.387234040000001 C 11.4042553 7.387234040000001 10.008510600000001 8.187234040000002 9.174468090000001 9.344680850000001 C 9.855319150000001 8.851063830000001 10.638297900000001 8.595744680000001 11.4723404 8.595744680000001 C 12.8680851 8.595744680000001 14.1106383 9.3106383 14.9446809 10.519148900000001 L 16.7489362 9.395744680000002 C 15.965957399999999 8.153191490000001 14.5702128 7.387234040000002 12.987233999999999 7.387234040000002 M 4.27234043 4.119148940000002 C 9.58297872 -0.0680851099999975 17.089361699999998 1.0723404300000023 21.0893617 6.638297870000002 L 21.1234043 6.672340430000002 L 23.0808511 5.463829790000002 C 20.9361702 2.1787234000000018 17.2085106 1.7763568394002505e-15 12.987234 1.7763568394002505e-15 C 8.8 1.7763568394002505e-15 5.072340430000001 2.1446808500000016 2.8936170200000007 5.463829790000002 C 3.2851063800000007 5.021276600000002 3.7787234000000005 4.493617020000002 4.272340430000001 4.119148940000002" stroke-linecap="round" />
</g>
</svg>
